<svg width="48" height="48" viewBox="0 0 48 48" fill="none" xmlns="http://www.w3.org/2000/svg">
<circle cx="24" cy="24" r="24" fill="#FFD2A4"/>
<path d="M32.5521 33.0895C32.6227 33.0895 32.6925 33.0756 32.7578 33.0486C32.823 33.0216 32.8822 32.982 32.9321 32.9321C32.982 32.8822 33.0216 32.8229 33.0487 32.7577C33.0757 32.6925 33.0896 32.6226 33.0896 32.552V13.5843C33.0893 13.4419 33.0325 13.3055 32.9318 13.2049C32.831 13.1043 32.6944 13.0479 32.5521 13.0479H18.6844C17.9491 13.0487 17.2442 13.3411 16.7242 13.8609C16.2041 14.3807 15.9115 15.0855 15.9104 15.8208V34.1333C15.953 34.6272 16.1784 35.0875 16.5426 35.4239C16.9067 35.7603 17.3834 35.9487 17.8792 35.952H32.5521C32.6943 35.952 32.8308 35.8955 32.9314 35.7949C33.032 35.6943 33.0885 35.5578 33.0885 35.4156C33.0885 35.2733 33.032 35.1368 32.9314 35.0362C32.8308 34.9356 32.6943 34.8791 32.5521 34.8791H31.3021V33.0895H32.5521ZM30.2292 34.8791H17.8792C17.6418 34.8791 17.4142 34.7848 17.2464 34.617C17.0786 34.4492 16.9844 34.2216 16.9844 33.9843C16.9844 33.747 17.0786 33.5194 17.2464 33.3516C17.4142 33.1838 17.6418 33.0895 17.8792 33.0895H30.2292V34.8791ZM17.8792 32.0156C17.7325 32.0164 17.5864 32.0339 17.4437 32.0676C17.3979 32.0781 17.3562 32.0958 17.3114 32.1093C17.2191 32.1374 17.1289 32.1723 17.0417 32.2135C17.0239 32.2218 17.0021 32.226 16.9844 32.2354V15.8208C16.9849 15.3701 17.1642 14.938 17.4829 14.6193C17.8016 14.3006 18.2337 14.1213 18.6844 14.1208H32.0177V32.0156H17.8792Z" fill="black"/>
<path d="M28.1146 19.1876H25.0365V16.5667C25.0365 16.4245 24.9799 16.288 24.8793 16.1874C24.7787 16.0868 24.6423 16.0303 24.5 16.0303C24.3577 16.0303 24.2213 16.0868 24.1207 16.1874C24.0201 16.288 23.9636 16.4245 23.9636 16.5667V19.1876H20.8854C20.7471 19.1937 20.6165 19.2529 20.5207 19.3529C20.425 19.453 20.3716 19.5861 20.3716 19.7245C20.3716 19.863 20.425 19.9961 20.5207 20.0962C20.6165 20.1962 20.7471 20.2554 20.8854 20.2615H23.9636V29.4553C23.9636 29.5976 24.0201 29.734 24.1207 29.8346C24.2213 29.9352 24.3577 29.9917 24.5 29.9917C24.6423 29.9917 24.7787 29.9352 24.8793 29.8346C24.9799 29.734 25.0365 29.5976 25.0365 29.4553V20.2574H28.1146C28.2529 20.2513 28.3836 20.192 28.4793 20.092C28.575 19.992 28.6284 19.8588 28.6284 19.7204C28.6284 19.5819 28.575 19.4488 28.4793 19.3488C28.3836 19.2487 28.2529 19.1895 28.1146 19.1834V19.1876Z" fill="black"/>
</svg>
